# xmcd
#
# Track frame offsets:
#	150
#	16379
#	31434
#	40674
#	56039
#	70059
#	83529
#	97176
#	110923
#	122776
#
# Disc length: 1832 seconds
#
# Revision: 0
# Processed by: cddbd v1.4PL0 Copyright (c) Steve Scherf et al.
# Submitted via: dBpowerAMP V4.0
#
DISCID=8407260a
DTITLE=Lyle Stubbs - There'a Another World
DYEAR=1900
DGENRE=Christian Country
TTITLE0=I Went To Sleep In My World
TTITLE1=In The Garden
TTITLE2=I'll Fly Away
TTITLE3=Leaving On My Mind
TTITLE4=When I See Jesus
TTITLE5=Outside Looking In
TTITLE6=If I Had The Power
TTITLE7=There's Another World
TTITLE8=Temporarily Here
TTITLE9=For the Rest Of Me
EXTD=Local Texas country singer
EXTT0=
EXTT1=
EXTT2=
EXTT3=
EXTT4=
EXTT5=
EXTT6=
EXTT7=
EXTT8=
EXTT9=
PLAYORDER=
